<svg xmlns="http://www.w3.org/2000/svg" width="64" height="64" viewBox="0 0 64 64"><g transform="translate(0 -988.362)"><path style="line-height:normal;text-indent:0;text-align:start;text-decoration-line:none;text-decoration-style:solid;text-decoration-color:#000;text-transform:none;block-progression:tb;isolation:auto;mix-blend-mode:normal" d="m 31.884766,996.41992 c -1.374627,0 -2.498047,1.12526 -2.498047,2.5 1.3e-5,1.37478 1.12343,2.49998 2.498047,2.49998 1.374616,0 2.499986,-1.1252 2.5,-2.49998 0,-1.37474 -1.125374,-2.5 -2.5,-2.5 z m 0,1 c 0.834077,0 1.5,0.66559 1.5,1.5 -9e-6,0.83441 -0.66593,1.49998 -1.5,1.49998 -0.834072,0 -1.498039,-0.66557 -1.498047,-1.49998 0,-0.83441 0.663969,-1.5 1.498047,-1.5 z" color="#000" font-family="sans-serif" font-weight="400" overflow="visible" white-space="normal"/><path d="m 31.885712,999.41925 c 0.553946,0 0.999902,0.44596 0.999902,0.99995 l 0,1.9983 c 0,0.554 -0.445956,0.9999 -0.999902,0.9999 -0.553945,0 -0.999901,-0.4459 -0.999901,-0.9999 l 0,-1.9983 c 0,-0.55399 0.445956,-0.99995 0.999901,-0.99995 z"/><path fill="#eee" d="m 51.149769,1023.2853 a 19.130146,19.133858 0 0 1 -19.130146,19.1338 19.130146,19.133858 0 0 1 -19.130146,-19.1338 19.130146,19.133858 0 0 1 19.130146,-19.1339 19.130146,19.133858 0 0 1 19.130146,19.1339 z"/><path style="line-height:normal;text-indent:0;text-align:start;text-decoration-line:none;text-decoration-style:solid;text-decoration-color:#000;text-transform:none;isolation:auto;mix-blend-mode:normal" d="m 31.885673,1013.0195 c -5.730557,0 -10.393284,4.6636 -10.393284,10.3953 0,5.7317 4.662727,10.3953 10.393284,10.3953 5.730595,0 10.393285,-4.6636 10.393323,-10.3953 -3.8e-5,-5.7317 -4.662728,-10.3953 -10.393323,-10.3953 z m 0,1.5993 c 4.866444,0 8.794318,3.9286 8.794356,8.796 -3.8e-5,4.8674 -3.927912,8.796 -8.794356,8.796 -4.866444,0 -8.794317,-3.9286 -8.794317,-8.796 0,-4.8674 3.927873,-8.796 8.794317,-8.796 z" color="#000" font-family="sans-serif" font-weight="400" overflow="visible" white-space="normal"/><path style="line-height:normal;text-indent:0;text-align:start;text-decoration-line:none;text-decoration-style:solid;text-decoration-color:#000;text-transform:none;block-progression:tb;isolation:auto;mix-blend-mode:normal" d="M 31.886719,1002.5332 C 20.362294,1002.5332 11,1011.8955 11,1023.4199 c 0,11.5245 9.362294,20.8848 20.886719,20.8848 11.524425,0 20.884765,-9.3603 20.884765,-20.8848 0,-11.5244 -9.36034,-20.8867 -20.884765,-20.8867 z m 0,1.7715 c 10.566952,0 19.113281,8.5483 19.113281,19.1152 0,10.567 -8.546329,19.1133 -19.113281,19.1133 -10.566952,0 -19.115235,-8.5463 -19.115235,-19.1133 0,-10.5669 8.548283,-19.1152 19.115235,-19.1152 z" color="#000" font-family="sans-serif" font-weight="400" overflow="visible" white-space="normal"/><path fill="#fff" d="m 39.800193,1015.4995 -6.218532,9.6123 -9.610469,6.2197 6.218532,-9.6123 z"/><path fill="#fff" d="m 24.253749,1015.2167 9.610469,6.2197 6.218532,9.6124 -9.610469,-6.2198 z"/><path fill="#c6c6c6" d="M24.253749 1015.2167l9.610469 6.2197-1.695949 1.6963zM30.472357 1024.8291l9.610431 6.2196-7.914482-7.9159z"/><path fill="#ccc" d="m 39.800193,1015.4995 -6.218532,9.6123 -9.610469,6.2197 z"/><path fill="#c6c6c6" d="m 29.268615,1020.7979 -11.773643,2.6175 11.773643,2.6177 2.617058,-2.6177 z"/><path fill="#c6c6c6" d="m 34.502731,1020.7979 11.773682,2.6175 -11.773682,2.6177 -2.617058,-2.6177 z"/><path fill="#c6c6c6" d="M34.502769 1020.7979l-2.617058-11.7759-2.617096 11.7759 2.617096 2.6176zM34.502769 1026.0331l-2.617058 11.7759-2.617096-11.7759 2.617096-2.6176z"/><path fill="#fff" d="M17.494972 1023.4154l11.773643 2.6177 2.617058-2.6177zM34.502731 1020.7979l11.773682 2.6175-14.39074 0z"/><path fill="#fff" d="M29.268615 1020.7979l2.617021-11.7759 0 14.3935zM34.502769 1026.0331l-2.617058 11.7759 0-14.3935z"/><path fill="#00b6e3" d="m 43.474763,1011.8242 -8.479824,14.1357 -14.133013,8.4815 8.479785,-14.1358 z"/><path fill="#ff5a5c" d="m 34.994939,1025.9599 -14.133013,8.4815 8.479785,-14.1358 z"/><path fill="#fff" d="m 748.14148,700.64532 a 1.9989041,1.9989041 0 0 1 -1.9989,1.99891 1.9989041,1.9989041 0 0 1 -1.99891,-1.99891 1.9989041,1.9989041 0 0 1 1.99891,-1.9989 1.9989041,1.9989041 0 0 1 1.9989,1.9989 z" transform="rotate(45.006)"/><path fill-rule="evenodd" style="line-height:normal;text-indent:0;text-align:start;text-decoration-line:none;text-decoration-style:solid;text-decoration-color:#000;text-transform:none;block-progression:tb;isolation:auto;mix-blend-mode:normal" d="M30.378906 1005.4199a.50004994.50004994 0 0 0-.492187.5059l0 3.9863a.50004994.50004994 0 1 0 1 0l0-3.9863a.50004994.50004994 0 0 0-.507813-.5059zM33.378906 1005.4199a.50004994.50004994 0 0 0-.492187.5059l0 3.9863a.50004994.50004994 0 1 0 1 0l0-3.9863a.50004994.50004994 0 0 0-.507813-.5059z" color="#000" font-family="sans-serif" font-weight="400" overflow="visible" white-space="normal"/><path fill-rule="evenodd" style="line-height:normal;text-indent:0;text-align:start;text-decoration-line:none;text-decoration-style:solid;text-decoration-color:#000;text-transform:none;block-progression:tb;isolation:auto;mix-blend-mode:normal" d="M30.351562 1005.4219a.50004994.50004994 0 0 0-.365234.8047l3 3.9863a.50004994.50004994 0 1 0 .798828-.6016l-3-3.9863a.50004994.50004994 0 0 0-.433594-.2031zM31.492188 1036.4199a.50005.50005 0 1 0 0 1l1.884765 0a.50005.50005 0 1 0 0-1l-1.884765 0zM30.396484 1040.4199a.50005.50005 0 1 0 0 1l1.984375 0a.50005.50005 0 1 0 0-1l-1.984375 0zM31.394531 1038.4199a.50005.50005 0 1 0 0 1l.988281 0a.50005.50005 0 1 0 0-1l-.988281 0z" color="#000" font-family="sans-serif" font-weight="400" overflow="visible" white-space="normal"/><path style="line-height:normal;text-indent:0;text-align:start;text-decoration-line:none;text-decoration-style:solid;text-decoration-color:#000;text-transform:none;block-progression:tb;isolation:auto;mix-blend-mode:normal" d="m 32.365234,1038.4199 a 0.50005,0.50005 0 1 0 0,1 c 0.302101,0 0.519532,0.2199 0.519532,0.5 0,0.2803 -0.217431,0.5 -0.519532,0.5 a 0.50005,0.50005 0 1 0 0,1 c 0.82813,0 1.519532,-0.6723 1.519532,-1.5 0,-0.8276 -0.691402,-1.5 -1.519532,-1.5 z" color="#000" font-family="sans-serif" font-weight="400" overflow="visible" white-space="normal"/><path style="line-height:normal;text-indent:0;text-align:start;text-decoration-line:none;text-decoration-style:solid;text-decoration-color:#000;text-transform:none;block-progression:tb;isolation:auto;mix-blend-mode:normal" d="m 31.414062,1036.4199 c -0.828108,0 -1.521484,0.6724 -1.521484,1.5 0,0.8278 0.693317,1.5 1.521484,1.5 a 0.50005,0.50005 0 1 0 0,-1 c -0.301986,0 -0.521484,-0.2196 -0.521484,-0.5 0,-0.2799 0.219439,-0.5 0.521484,-0.5 a 0.50005,0.50005 0 1 0 0,-1 z" color="#000" font-family="sans-serif" font-weight="400" overflow="visible" white-space="normal"/><path fill-rule="evenodd" style="line-height:normal;text-indent:0;text-align:start;text-decoration-line:none;text-decoration-style:solid;text-decoration-color:#000;text-transform:none;block-progression:tb;isolation:auto;mix-blend-mode:normal" d="M14.378906 1020.4219a.50004994.50004994 0 0 0-.492187.5058l0 3.9922a.50004994.50004994 0 1 0 1 0l0-3.9922a.50004994.50004994 0 0 0-.507813-.5058zM17.376953 1020.4219a.50004994.50004994 0 0 0-.492187.5058l0 3.9922a.50004994.50004994 0 1 0 1 0l0-3.9922a.50004994.50004994 0 0 0-.507813-.5058z" color="#000" font-family="sans-serif" font-weight="400" overflow="visible" white-space="normal"/><path fill-rule="evenodd" style="line-height:normal;text-indent:0;text-align:start;text-decoration-line:none;text-decoration-style:solid;text-decoration-color:#000;text-transform:none;block-progression:tb;isolation:auto;mix-blend-mode:normal" d="m 15.896484,1022.8223 a 0.50004994,0.50004994 0 0 0 -0.375,0.8476 l 1.5,1.5918 A 0.50016143,0.50016143 0 1 0 17.75,1024.5762 l -1.5,-1.5918 a 0.50004994,0.50004994 0 0 0 -0.353516,-0.1621 z" color="#000" font-family="sans-serif" font-weight="400" overflow="visible" white-space="normal"/><path fill-rule="evenodd" style="line-height:normal;text-indent:0;text-align:start;text-decoration-line:none;text-decoration-style:solid;text-decoration-color:#000;text-transform:none;block-progression:tb;isolation:auto;mix-blend-mode:normal" d="M15.861328 1022.8223a.50004994.50004994 0 0 0-.339844.1621l-1.496093 1.5918a.50016106.50016106 0 1 0 .728515.6855L16.25 1023.6699a.50004994.50004994 0 0 0-.388672-.8476zM46.388672 1020.4199a.50004994.50004994 0 1 0 0 1l2.990234 0a.50004994.50004994 0 1 0 0-1l-2.990234 0z" color="#000" font-family="sans-serif" font-weight="400" overflow="visible" white-space="normal"/><path fill-rule="evenodd" style="line-height:normal;text-indent:0;text-align:start;text-decoration-line:none;text-decoration-style:solid;text-decoration-color:#000;text-transform:none;block-progression:tb;isolation:auto;mix-blend-mode:normal" d="m 46.371094,1020.4199 a 0.50004994,0.50004994 0 0 0 -0.492188,0.5059 l 0,3.9922 a 0.50004994,0.50004994 0 1 0 1,0 l 0,-3.9922 a 0.50004994,0.50004994 0 0 0 -0.507812,-0.5059 z" color="#000" font-family="sans-serif" font-weight="400" overflow="visible" white-space="normal"/><path fill-rule="evenodd" style="line-height:normal;text-indent:0;text-align:start;text-decoration-line:none;text-decoration-style:solid;text-decoration-color:#000;text-transform:none;block-progression:tb;isolation:auto;mix-blend-mode:normal" d="M46.388672 1022.4199a.50004994.50004994 0 1 0 0 1l2.189453 0a.50004994.50004994 0 1 0 0-1l-2.189453 0zM46.388672 1024.4199a.50004994.50004994 0 1 0 0 1l2.990234 0a.50004994.50004994 0 1 0 0-1l-2.990234 0z" color="#000" font-family="sans-serif" font-weight="400" overflow="visible" white-space="normal"/></g></svg>